<svg width="29" height="11" viewBox="0 0 29 11" fill="none" xmlns="http://www.w3.org/2000/svg">
<path d="M4.668 2.55198V3.45199H4.008L5.58 6.34399L7.104 3.49999H6.264V2.59998H8.928V3.49999H8.268L6.084 7.36399V10.1H7.248V11H4.008V10.1H5.064V7.36399L2.904 3.55999C2.2 3.65598 1.7 3.83198 1.404 4.08798C1.108 4.34398 0.96 4.68799 0.96 5.11999C0.96 5.35999 1.012 5.55999 1.116 5.71999C1.22 5.87199 1.372 5.94799 1.572 5.94799C1.948 5.94799 2.136 5.63199 2.136 4.99999H3.096C3.096 5.51999 2.976 5.95999 2.736 6.31999C2.496 6.67199 2.108 6.84799 1.572 6.84799C1.036 6.84799 0.64 6.67999 0.384 6.34399C0.128 6.00799 0 5.59999 0 5.11999C0 4.33599 0.372 3.71199 1.116 3.24799C1.86 2.78398 3.044 2.55198 4.668 2.55198Z" fill="#1D6532"/>
<path d="M12.96 3.37998V2.59998H14.904V7.87999H15.888V8.38399C15.592 8.56799 15.196 8.65999 14.7 8.65999C14.212 8.65999 13.944 8.44799 13.896 8.02399C13.056 8.49599 12.3 8.73199 11.628 8.73199C10.964 8.73199 10.5 8.52799 10.236 8.11999C9.98 7.71199 9.852 7.14799 9.852 6.42799V3.37998L8.928 3.49999V2.59998H10.872V6.42799C10.872 6.89199 10.932 7.24399 11.052 7.48399C11.172 7.71599 11.448 7.83199 11.88 7.83199C12.312 7.83199 12.98 7.59199 13.884 7.11199V3.37998H12.96Z" fill="#1D6532"/>
<path d="M17.832 7.87998H18.876V8.65998L15.888 8.38399V7.87999L16.812 7.87998V3.43997H15.888V2.65997H17.604L17.748 3.29597C18.02 3.14397 18.24 3.02797 18.408 2.94797C18.576 2.85997 18.816 2.77197 19.128 2.68397C19.448 2.58797 19.756 2.53997 20.052 2.53997L20.724 2.71997L20.448 3.70397L19.908 3.55997C19.236 3.55997 18.544 3.72797 17.832 4.06397V7.87998Z" fill="#1D6532"/>
<path d="M20.448 3.70397L20.724 2.71997L22.68 2.732V7.952L23.654 7.87999L23.6636 8.09546L23.6732 8.31094L23.6975 8.51844L23.734 8.732H20.724V7.952H21.66V3.512L20.448 3.70397ZM22.14 1.664C21.964 1.664 21.82 1.6 21.708 1.472C21.596 1.344 21.54 1.192 21.54 1.016C21.54 0.832001 21.6 0.672001 21.72 0.536001C21.848 0.400001 22 0.332001 22.176 0.332001C22.352 0.332001 22.496 0.396001 22.608 0.524001C22.72 0.652001 22.776 0.808001 22.776 0.992001C22.776 1.168 22.712 1.324 22.584 1.46C22.464 1.596 22.316 1.664 22.14 1.664Z" fill="#1D6532"/>
<path d="M23.654 7.87999C23.654 6.97599 23.894 6.23199 24.374 5.64799C24.862 5.05599 25.51 4.75999 26.318 4.75999C27.126 4.75999 27.802 4.92399 28.346 5.25199V6.67999H27.506V5.87599C27.162 5.73199 26.798 5.65999 26.414 5.65999C25.862 5.65999 25.434 5.86799 25.13 6.28399C24.826 6.69999 24.674 7.23199 24.674 7.87999C24.674 8.52799 24.826 9.05998 25.13 9.47598C25.434 9.89198 25.862 10.1 26.414 10.1C26.726 10.1 27.01 10.064 27.266 9.99198C27.522 9.91198 27.694 9.84798 27.782 9.79998C27.87 9.74398 28.006 9.65198 28.19 9.52398L28.634 10.196C28.066 10.732 27.334 11 26.438 11C25.55 11 24.862 10.708 24.374 10.124C23.894 9.53199 23.654 8.78399 23.654 7.87999Z" fill="#1D6532"/>
</svg>
